<?xml version="1.0" encoding="UTF-8"?>
<svg width="700pt" height="700pt" version="1.1" viewBox="0 0 700 700" xmlns="http://www.w3.org/2000/svg">
 <path d="m350 437.5c-31.262 0-60.148-16.676-75.777-43.75s-15.629-60.426 0-87.5 44.516-43.75 75.777-43.75 60.148 16.676 75.777 43.75 15.629 60.426 0 87.5-44.516 43.75-75.777 43.75zm0-140c-18.758 0-36.09 10.008-45.465 26.25-9.3789 16.242-9.3789 36.258 0 52.5 9.375 16.242 26.707 26.25 45.465 26.25s36.09-10.008 45.465-26.25c9.3789-16.242 9.3789-36.258 0-52.5-9.375-16.242-26.707-26.25-45.465-26.25zm0 210c-86.609 0-169.55-46.016-227.57-126.24v-0.011718c-6.5859-9.0859-10.129-20.023-10.129-31.246s3.543-22.16 10.129-31.246c58.02-80.238 140.96-126.25 227.57-126.25s169.55 46.016 227.57 126.24c6.5859 9.0938 10.129 20.031 10.129 31.254s-3.543 22.16-10.129 31.25c-58.02 80.238-140.96 126.25-227.57 126.25zm-199.2-146.75c52.105 72.059 122.84 111.75 199.2 111.75s147.09-39.691 199.2-111.75c2.2656-3.1289 3.4844-6.8906 3.4844-10.754 0-3.8633-1.2188-7.625-3.4844-10.754-52.105-72.051-122.84-111.74-199.2-111.74s-147.09 39.691-199.2 111.75c-2.2656 3.1289-3.4844 6.8906-3.4844 10.754 0 3.8633 1.2188 7.625 3.4844 10.754zm181.7-290.75v87.5c0 6.2539 3.3359 12.031 8.75 15.156s12.086 3.125 17.5 0 8.75-8.9023 8.75-15.156v-87.5c0-6.2539-3.3359-12.031-8.75-15.156s-12.086-3.125-17.5 0-8.75 8.9023-8.75 15.156zm234.03 65.238-56.258 67.023v0.003906c-4.0625 4.6406-10.27 6.8047-16.336 5.6875-6.0664-1.1133-11.098-5.3398-13.242-11.121-2.1445-5.7852-1.0898-12.27 2.7812-17.07l56.258-67.023v-0.003906c4.0625-4.6406 10.27-6.8047 16.336-5.6875 6.0664 1.1133 11.098 5.3398 13.242 11.121 2.1445 5.7852 1.0898 12.27-2.7812 17.07zm-406.26-22.504 56.258 67.023c3.8828 4.8008 4.9492 11.293 2.8047 17.086-2.1445 5.7891-7.1836 10.02-13.258 11.133-6.0742 1.1133-12.285-1.0586-16.344-5.7109l-56.258-67.027c-3.8828-4.8008-4.9492-11.293-2.8047-17.082s7.1836-10.023 13.258-11.137c6.0742-1.1094 12.285 1.0586 16.344 5.7148z"/>
</svg>
